inDegrees=no
num_controls=7
num_derivatives=13
num_iterations=162
num_multipliers=7
num_parameters=0
num_slacks=7
num_states=26
objective=5.715278
objective_accelerations=0.495706
objective_balance=0.024969
objective_effort=0.519437
objective_height=4.603015
objective_ligament=0.072151
solver_duration=1752.581765
status=Solve_Succeeded
success=true
DataType=double
version=3
OpenSimVersion=4.4-2022-07-23-0e9fedc
endheader
time	/jointset/ground_pelvis/pelvis_tilt/value	/jointset/ground_pelvis/pelvis_tx/value	/jointset/ground_pelvis/pelvis_ty/value	/jointset/hip_l/hip_flexion_l/value	/jointset/hip_l/hip_adduction_l/value	/jointset/hip_l/hip_rotation_l/value	/jointset/back/lumbar_extension/value	/jointset/patellofemoral_l/patellar_flexion_l/value	/jointset/knee_l/knee_flexion_l/value	/jointset/knee_l/knee_adduction_l/value	/jointset/knee_l/knee_rotation_l/value	/jointset/ankle_l/ankle_angle_l/value	/jointset/subtalar_l/subtalar_angle_l/value	/jointset/ground_pelvis/pelvis_tilt/speed	/jointset/ground_pelvis/pelvis_tx/speed	/jointset/ground_pelvis/pelvis_ty/speed	/jointset/hip_l/hip_flexion_l/speed	/jointset/hip_l/hip_adduction_l/speed	/jointset/hip_l/hip_rotation_l/speed	/jointset/back/lumbar_extension/speed	/jointset/patellofemoral_l/patellar_flexion_l/speed	/jointset/knee_l/knee_flexion_l/speed	/jointset/knee_l/knee_adduction_l/speed	/jointset/knee_l/knee_rotation_l/speed	/jointset/ankle_l/ankle_angle_l/speed	/jointset/subtalar_l/subtalar_angle_l/speed	/forceset/tau_hip_flexion_l	/forceset/tau_hip_adduction_l	/forceset/tau_hip_rotation_l	/forceset/tau_knee_flexion_l	/forceset/tau_ankle_angle_l	/forceset/tau_subtalar_angle_l	/forceset/tau_lumbar_extension	lambda_cid13_p0	lambda_cid13_p1	lambda_cid13_p2	lambda_cid13_p3	lambda_cid13_p4	lambda_cid13_p5	lambda_cid14_p0	/jointset/ground_pelvis/pelvis_tilt/accel	/jointset/ground_pelvis/pelvis_tx/accel	/jointset/ground_pelvis/pelvis_ty/accel	/jointset/hip_l/hip_flexion_l/accel	/jointset/hip_l/hip_adduction_l/accel	/jointset/hip_l/hip_rotation_l/accel	/jointset/back/lumbar_extension/accel	/jointset/patellofemoral_l/patellar_flexion_l/accel	/jointset/knee_l/knee_flexion_l/accel	/jointset/knee_l/knee_adduction_l/accel	/jointset/knee_l/knee_rotation_l/accel	/jointset/ankle_l/ankle_angle_l/accel	/jointset/subtalar_l/subtalar_angle_l/accel	gamma_cid13_p0	gamma_cid13_p1	gamma_cid13_p2	gamma_cid13_p3	gamma_cid13_p4	gamma_cid13_p5	gamma_cid14_p0
1	-0.1924215785496985	-0.1034798388446103	0.6931583228757084	1.386576010355492	-0.3278277458389011	0.03305843139791478	-0.9599288462266944	1.251592774620269	1.251592774620411	-0.08188085636849025	-0.1745262657417214	0.1408325085657285	0.01076458108340892	0.1004287236953452	0.02421262749560682	0.06991045606395258	-0.2895658151403162	-0.003004479141796384	-0.06373342811133001	-0.0004227664186044264	-0.162182996006934	-0.1621829960069395	-0.0004157134380840914	-4.094765621773217e-05	0.01846770156900928	0.004216659334925044	-0.4235554040717944	-7.652479319206871e-05	-0.002858068350471286	-0.312180764740725	0.1207054135926118	0.04216446845138709	0.4483330577655444	-12.1659020357245	-15.9746225647642	1.855760996726593	5.776460144606011	-796.0189781374893	-73.04726458248227	-0.3839597384892979	1.172288662015227	0.1607712487759124	1.449155796527651	-5.206856747892611	-0.1015884843275703	-1.53322351915033	0.03041292833067128	-4.457235295569828	-4.457235295569743	-0.2609008330136801	-0.01100683820321298	-0.7231783440097307	-0.3555094333713555	-9.316256627206341e-09	-5.892699525705358e-09	4.825934349779716e-08	2.572256076595053e-09	-2.215290728173863e-08	7.670437964248667e-08	-1.36561172615558e-08
1.01	-0.1913591288574789	-0.1032296545220182	0.6939296387836503	1.383421032461476	-0.3278621376443661	0.03234408733108356	-0.9599309229898783	1.249748472949999	1.249748472950102	-0.08189660177434052	-0.1745264557258612	0.1409810792594895	0.01078983748134978	0.1120635236710172	0.02582870012273593	0.08433900707584317	-0.3414062661941956	-0.00386533828707598	-0.07912754665962766	1.384105263434235e-05	-0.2066651173312935	-0.2066651173312988	-0.002731979663620591	2.264165284273226e-06	0.01123394430497779	0.000839716564426151	-0.4225857823191192	8.038975997458869e-05	-0.002904519817717638	-0.3119599627968425	0.1205462818183713	0.04230438125919195	0.4477911367525558	-12.17306878640815	-16.04343153474337	1.877353460486011	5.682205916815974	-795.473555769618	-73.15559576933772	-0.4022484039757321	1.159420014475586	0.1626962822036997	1.437641395129148	-5.169117339608951	-0.07705636613842122	-1.54134558213342	0.05124902236146379	-4.441863816460431	-4.441863816460436	-0.2167905599548163	0.01189803437896254	-0.7253490607778892	-0.3280276742076751	-1.499528439132077e-08	-1.372551544098449e-08	6.563412173541148e-08	7.685165930818606e-09	-2.789771178951887e-08	8.946373285065925e-08	-1.809065009983158e-08
1.02	-0.1901802622956653	-0.1029631752706501	0.6948448275300328	1.379748354445868	-0.3279048823885781	0.03147603416686376	-0.9599284408234614	1.247459717413369	1.247459717413408	-0.08193547005099856	-0.17452623102343	0.1410569374519748	0.01078147625652208	0.1237120976119679	0.02747161325080642	0.09868502375199742	-0.3931058394670433	-0.004675066892769354	-0.09447524758648716	0.0004890231574151061	-0.251073769279316	-0.2510737692793212	-0.005040287594402039	4.198966885823245e-05	0.003925201313826987	-0.002506865218818281	-0.4216161605663121	0.0002373043131422072	-0.002950971285164119	-0.311739160852964	0.1203871500441057	0.04244429406699168	0.4472492157397044	-12.19021611789485	-16.10963858438645	1.897555271982895	5.626600286642856	-795.0600734766284	-73.24762875225686	-0.425596942418712	1.175043455070836	0.1661393489642522	1.432648929380399	-5.178681191686261	-0.09136237641029916	-1.523939994862677	0.03812785503941903	-4.442541420302426	-4.442541420302378	-0.2593091740626559	-0.01170410178876967	-0.7381754894334921	-0.3494372359203988	-2.096857235951176e-08	-2.283612838749524e-08	8.112785319851226e-08	1.297002703172171e-08	-3.392478916956895e-08	1.014737185804661e-07	-2.249867596701952e-08
1.03	-0.1888854057413639	-0.102679898898506	0.6959030329481796	1.375559749801541	-0.3279554529462495	0.03045480811264714	-0.9599188839144793	1.244727302136641	1.244727302136661	-0.08199742883650492	-0.1745256175467163	0.141059607904677	0.01073992114556418	0.1352055053947875	0.02921179430987426	0.1129394538190117	-0.4445565644747554	-0.005430395313537096	-0.10975999012718	0.001641666429834733	-0.2953916817787808	-0.2953916817787837	-0.007352675529544116	7.693332242936929e-05	-0.00337615859469479	-0.005788717218308904	-0.4222450402476124	0.0005550061861160614	-0.003015125890406623	-0.3110575238691123	0.1202635131822324	0.04272159854626521	0.448614687823514	-12.23553297721842	-16.23912509211683	1.937603098133074	5.10635449120858	-795.6750846483216	-73.35959410788021	-0.45441563983755	1.128430777372878	0.1821811377140572	1.419341109153608	-5.119493011572714	-0.06632584105762086	-1.529268674231393	0.186728704370085	-4.423770113662902	-4.423770113662619	-0.217398956101619	0.01055074771822329	-0.7238756370451032	-0.3152492282649165	-2.694486298284638e-08	-3.195978007922265e-08	9.660239030677105e-08	1.825664273718276e-08	-3.995474688505036e-08	1.134760577033509e-07	-2.690643135491064e-08
